<svg width="90" height="90" viewBox="0 0 90 90" fill="none" xmlns="http://www.w3.org/2000/svg">
<path fill-rule="evenodd" clip-rule="evenodd" d="M45.0372 0C20.1328 0 0 20.2812 0 45.3719C0 65.4282 12.8998 82.4054 30.7952 88.4142C33.0326 88.8659 33.8521 87.4379 33.8521 86.2367C33.8521 85.1848 33.7784 81.5794 33.7784 77.8228C21.2501 80.5275 18.6412 72.4141 18.6412 72.4141C16.6278 67.1558 13.6447 65.8043 13.6447 65.8043C9.54416 63.0248 13.9433 63.0248 13.9433 63.0248C18.4919 63.3254 20.8786 67.6821 20.8786 67.6821C24.9044 74.5925 31.3917 72.64 34.0015 71.4379C34.3739 68.5081 35.5677 66.48 36.8353 65.3535C26.8431 64.3016 16.3301 60.3957 16.3301 42.9676C16.3301 38.0098 18.1185 33.9535 20.9524 30.7989C20.5052 29.6724 18.939 25.0141 21.4004 18.7795C21.4004 18.7795 25.2031 17.5774 33.7775 23.4368C37.4484 22.4436 41.2343 21.9384 45.0372 21.9341C48.84 21.9341 52.7164 22.4605 56.2961 23.4368C64.8714 17.5774 68.6741 18.7795 68.6741 18.7795C71.1355 25.0141 69.5683 29.6724 69.1212 30.7989C72.0297 33.9535 73.7444 38.0098 73.7444 42.9676C73.7444 60.3957 63.2313 64.226 53.1645 65.3535C54.8054 66.7806 56.2214 69.4844 56.2214 73.7665C56.2214 79.8509 56.1477 84.7341 56.1477 86.2358C56.1477 87.4379 56.9681 88.8659 59.2046 88.4151C77.1 82.4045 89.9998 65.4282 89.9998 45.3719C90.0735 20.2812 69.867 0 45.0372 0Z" fill="#00A8A8"/>
</svg>
