<svg width="90" height="90" viewBox="0 0 90 90" fill="none" xmlns="http://www.w3.org/2000/svg">
<g clip-path="url(#clip0_3516_11)">
<path d="M45 8.10352C57.0234 8.10352 58.4473 8.15625 63.1758 8.36719C67.5703 8.56055 69.9434 9.29883 71.5254 9.91406C73.6172 10.7227 75.1289 11.707 76.6934 13.2715C78.2754 14.8535 79.2422 16.3477 80.0508 18.4395C80.666 20.0215 81.4043 22.4121 81.5977 26.7891C81.8086 31.5352 81.8613 32.959 81.8613 44.9648C81.8613 56.9883 81.8086 58.4121 81.5977 63.1406C81.4043 67.5352 80.666 69.9082 80.0508 71.4902C79.2422 73.582 78.2578 75.0938 76.6934 76.6582C75.1113 78.2402 73.6172 79.207 71.5254 80.0156C69.9434 80.6309 67.5527 81.3691 63.1758 81.5625C58.4297 81.7734 57.0059 81.8262 45 81.8262C32.9766 81.8262 31.5527 81.7734 26.8242 81.5625C22.4297 81.3691 20.0566 80.6309 18.4746 80.0156C16.3828 79.207 14.8711 78.2227 13.3066 76.6582C11.7246 75.0762 10.7578 73.582 9.94922 71.4902C9.33398 69.9082 8.5957 67.5176 8.40234 63.1406C8.19141 58.3945 8.13867 56.9707 8.13867 44.9648C8.13867 32.9414 8.19141 31.5176 8.40234 26.7891C8.5957 22.3945 9.33398 20.0215 9.94922 18.4395C10.7578 16.3477 11.7422 14.8359 13.3066 13.2715C14.8887 11.6895 16.3828 10.7227 18.4746 9.91406C20.0566 9.29883 22.4473 8.56055 26.8242 8.36719C31.5527 8.15625 32.9766 8.10352 45 8.10352ZM45 0C32.7832 0 31.2539 0.0527344 26.4551 0.263672C21.6738 0.474609 18.3867 1.24805 15.5391 2.35547C12.5684 3.51562 10.0547 5.04492 7.55859 7.55859C5.04492 10.0547 3.51563 12.5684 2.35547 15.5215C1.24805 18.3867 0.474609 21.6562 0.263672 26.4375C0.0527344 31.2539 0 32.7832 0 45C0 57.2168 0.0527344 58.7461 0.263672 63.5449C0.474609 68.3262 1.24805 71.6133 2.35547 74.4609C3.51563 77.4316 5.04492 79.9453 7.55859 82.4414C10.0547 84.9375 12.5684 86.4844 15.5215 87.627C18.3867 88.7344 21.6563 89.5078 26.4375 89.7188C31.2363 89.9297 32.7656 89.9824 44.9824 89.9824C57.1992 89.9824 58.7285 89.9297 63.5273 89.7188C68.3086 89.5078 71.5957 88.7344 74.4434 87.627C77.3965 86.4844 79.9102 84.9375 82.4063 82.4414C84.9023 79.9453 86.4492 77.4317 87.5918 74.4785C88.6992 71.6133 89.4727 68.3438 89.6836 63.5625C89.8945 58.7637 89.9473 57.2344 89.9473 45.0176C89.9473 32.8008 89.8945 31.2715 89.6836 26.4727C89.4727 21.6914 88.6992 18.4043 87.5918 15.5566C86.4844 12.5684 84.9551 10.0547 82.4414 7.55859C79.9453 5.0625 77.4316 3.51563 74.4785 2.37305C71.6133 1.26562 68.3438 0.492188 63.5625 0.28125C58.7461 0.0527344 57.2168 0 45 0Z" fill="#00A8A8"/>
<path d="M45 21.8848C32.2383 21.8848 21.8848 32.2383 21.8848 45C21.8848 57.7617 32.2383 68.1152 45 68.1152C57.7617 68.1152 68.1152 57.7617 68.1152 45C68.1152 32.2383 57.7617 21.8848 45 21.8848ZM45 59.9941C36.7207 59.9941 30.0059 53.2793 30.0059 45C30.0059 36.7207 36.7207 30.0059 45 30.0059C53.2793 30.0059 59.9941 36.7207 59.9941 45C59.9941 53.2793 53.2793 59.9941 45 59.9941Z" fill="#00A8A8"/>
<path d="M74.4258 20.9706C74.4258 23.9589 72 26.3671 69.0293 26.3671C66.041 26.3671 63.6328 23.9413 63.6328 20.9706C63.6328 17.9823 66.0586 15.5741 69.0293 15.5741C72 15.5741 74.4258 17.9999 74.4258 20.9706Z" fill="#00A8A8"/>
</g>
<defs>
<clipPath id="clip0_3516_11">
<rect width="90" height="90" fill="white"/>
</clipPath>
</defs>
</svg>
