<svg width="98" height="98" viewBox="0 0 98 98" fill="none" xmlns="http://www.w3.org/2000/svg">
<g clip-path="url(#clip0_3516_7)" filter="url(#filter0_d_3516_7)">
<path d="M87.3562 0H10.6438C8.88172 0 7.19186 0.699966 5.94591 1.94591C4.69997 3.19186 4 4.88172 4 6.64375V83.3562C4 85.1183 4.69997 86.8082 5.94591 88.0541C7.19186 89.3 8.88172 90 10.6438 90H87.3562C89.1183 90 90.8082 89.3 92.0541 88.0541C93.3 86.8082 94 85.1183 94 83.3562V6.64375C94 4.88172 93.3 3.19186 92.0541 1.94591C90.8082 0.699966 89.1183 0 87.3562 0ZM30.825 76.6687H17.2938V33.6875H30.825V76.6687ZM24.05 27.7313C22.5151 27.7226 21.0172 27.2595 19.7453 26.4003C18.4733 25.5412 17.4844 24.3245 16.9033 22.9038C16.3222 21.4832 16.1749 19.9222 16.4801 18.418C16.7853 16.9137 17.5293 15.5335 18.6181 14.4517C19.7069 13.3698 21.0918 12.6348 22.598 12.3392C24.1042 12.0437 25.6642 12.201 27.0811 12.7912C28.498 13.3814 29.7083 14.3781 30.5592 15.6555C31.4102 16.933 31.8637 18.4338 31.8625 19.9688C31.877 20.9964 31.6844 22.0164 31.2963 22.968C30.9082 23.9196 30.3324 24.7834 29.6034 25.5078C28.8743 26.2321 28.0069 26.8023 27.0528 27.1843C26.0987 27.5663 25.0775 27.7523 24.05 27.7313ZM80.7 76.7062H67.175V53.225C67.175 46.3 64.2313 44.1625 60.4313 44.1625C56.4188 44.1625 52.4812 47.1875 52.4812 53.4V76.7062H38.95V33.7188H51.9625V39.675H52.1375C53.4438 37.0313 58.0188 32.5125 65 32.5125C72.55 32.5125 80.7062 36.9938 80.7062 50.1188L80.7 76.7062Z" fill="#00A8A8"/>
</g>
<defs>
<filter id="filter0_d_3516_7" x="0" y="0" width="98" height="98" filterUnits="userSpaceOnUse" color-interpolation-filters="sRGB">
<feFlood flood-opacity="0" result="BackgroundImageFix"/>
<feColorMatrix in="SourceAlpha" type="matrix" values="0 0 0 0 0 0 0 0 0 0 0 0 0 0 0 0 0 0 127 0" result="hardAlpha"/>
<feOffset dy="4"/>
<feGaussianBlur stdDeviation="2"/>
<feComposite in2="hardAlpha" operator="out"/>
<feColorMatrix type="matrix" values="0 0 0 0 0 0 0 0 0 0 0 0 0 0 0 0 0 0 0.25 0"/>
<feBlend mode="normal" in2="BackgroundImageFix" result="effect1_dropShadow_3516_7"/>
<feBlend mode="normal" in="SourceGraphic" in2="effect1_dropShadow_3516_7" result="shape"/>
</filter>
<clipPath id="clip0_3516_7">
<rect width="90" height="90" fill="white" transform="translate(4)"/>
</clipPath>
</defs>
</svg>
