<svg width="48" height="48" viewBox="0 0 48 48" fill="none" xmlns="http://www.w3.org/2000/svg">
<path d="M22.9487 34.6116C28.9749 28.1639 34.7925 23.7898 42.1002 17.5955C44.2875 15.7414 44.6253 12.4916 42.9094 10.1891C41.0858 7.74197 37.6206 7.25284 35.2751 9.19825C28.5814 14.7504 23.3737 20.0964 18.4336 25.8102C18.1744 26.11 18.0447 26.2599 17.9102 26.3443C17.5691 26.5584 17.1428 26.5607 16.7994 26.3502C16.664 26.2673 16.5341 26.1202 16.2744 25.8262L13.6421 22.8457C11.2402 20.1263 6.93216 20.4273 4.92677 23.4547C3.52342 25.5733 3.73138 28.381 5.43133 30.2667L9.55921 34.8457C12.6467 38.2706 14.1904 39.9831 16.0437 39.9999C17.897 40.0167 19.5809 38.215 22.9487 34.6116Z" stroke="#6A00F4" stroke-width="1.5"/>
</svg>
