<svg width="550" height="160" viewBox="0 0 550 160" fill="none" xmlns="http://www.w3.org/2000/svg">
<rect width="80" height="24.6154" fill="#013440"/>
<rect y="27.0769" width="26.6667" height="24.6154" fill="#013440"/>
<rect y="81.2308" width="26.6667" height="24.6154" fill="#013440"/>
<rect y="108.308" width="26.6667" height="24.6154" fill="#013440"/>
<rect x="53.3333" y="108.308" width="26.6667" height="24.6154" fill="#013440"/>
<rect x="40" y="135.385" width="10.6667" height="24.6154" fill="#00FF7F"/>
<rect x="40" y="81.2308" width="26.6667" height="24.6154" fill="#013440"/>
<rect x="53.3333" y="27.0769" width="26.6667" height="24.6154" fill="#013440"/>
<rect y="54.08" width="80" height="24.6154" fill="#013440"/>
<path d="M116.08 62.4C118.992 62.4 121.344 62.704 123.136 63.312C124.96 63.888 126.288 64.896 127.12 66.336C127.984 67.744 128.416 69.712 128.416 72.24C128.416 73.776 128.208 75.136 127.792 76.32C127.408 77.472 126.752 78.4 125.824 79.104C124.896 79.808 123.632 80.256 122.032 80.448V80.688C122.608 80.784 123.2 81.008 123.808 81.36C124.448 81.712 125.04 82.24 125.584 82.944C126.128 83.616 126.528 84.528 126.784 85.68L129.664 96H121.936L119.392 85.92C119.104 84.832 118.672 84.08 118.096 83.664C117.552 83.248 116.784 83.04 115.792 83.04C113.616 83.04 111.776 83.04 110.272 83.04C108.8 83.008 107.552 82.976 106.528 82.944C105.536 82.912 104.64 82.88 103.84 82.848L103.984 77.52H115.936C117.216 77.52 118.224 77.392 118.96 77.136C119.728 76.848 120.256 76.352 120.544 75.648C120.864 74.944 121.024 73.968 121.024 72.72C121.024 71.44 120.864 70.464 120.544 69.792C120.256 69.088 119.728 68.608 118.96 68.352C118.224 68.064 117.216 67.92 115.936 67.92C112.928 67.92 110.384 67.936 108.304 67.968C106.224 68 104.8 68.048 104.032 68.112L103.312 62.88C104.656 62.72 105.92 62.608 107.104 62.544C108.288 62.48 109.584 62.448 110.992 62.448C112.4 62.416 114.096 62.4 116.08 62.4ZM110.56 62.88V96H103.312V62.88H110.56ZM147.45 62.208C150.074 62.208 152.298 62.496 154.122 63.072C155.946 63.616 157.402 64.544 158.49 65.856C159.61 67.136 160.426 68.896 160.938 71.136C161.45 73.344 161.706 76.112 161.706 79.44C161.706 82.768 161.45 85.552 160.938 87.792C160.426 90 159.61 91.76 158.49 93.072C157.402 94.352 155.946 95.28 154.122 95.856C152.298 96.4 150.074 96.672 147.45 96.672C144.826 96.672 142.602 96.4 140.778 95.856C138.954 95.28 137.482 94.352 136.362 93.072C135.242 91.76 134.426 90 133.914 87.792C133.402 85.552 133.146 82.768 133.146 79.44C133.146 76.112 133.402 73.344 133.914 71.136C134.426 68.896 135.242 67.136 136.362 65.856C137.482 64.544 138.954 63.616 140.778 63.072C142.602 62.496 144.826 62.208 147.45 62.208ZM147.45 68.016C145.754 68.016 144.426 68.352 143.466 69.024C142.538 69.696 141.866 70.864 141.45 72.528C141.066 74.16 140.874 76.464 140.874 79.44C140.874 82.384 141.066 84.688 141.45 86.352C141.866 88.016 142.538 89.184 143.466 89.856C144.426 90.528 145.754 90.864 147.45 90.864C149.114 90.864 150.41 90.528 151.338 89.856C152.298 89.184 152.97 88.016 153.354 86.352C153.77 84.688 153.978 82.384 153.978 79.44C153.978 76.464 153.77 74.16 153.354 72.528C152.97 70.864 152.298 69.696 151.338 69.024C150.41 68.352 149.114 68.016 147.45 68.016ZM180.304 62.4C182.928 62.4 185.136 62.688 186.928 63.264C188.752 63.808 190.208 64.72 191.296 66C192.416 67.28 193.232 69.024 193.744 71.232C194.256 73.408 194.512 76.144 194.512 79.44C194.512 82.736 194.256 85.488 193.744 87.696C193.232 89.872 192.416 91.6 191.296 92.88C190.208 94.16 188.752 95.088 186.928 95.664C185.136 96.208 182.928 96.48 180.304 96.48C177.776 96.48 175.456 96.432 173.344 96.336C171.232 96.24 169.216 96.128 167.296 96L170.368 90.576C171.584 90.64 173.024 90.704 174.688 90.768C176.384 90.8 178.256 90.816 180.304 90.816C181.936 90.816 183.216 90.496 184.144 89.856C185.104 89.184 185.776 88.016 186.16 86.352C186.576 84.688 186.784 82.384 186.784 79.44C186.784 76.496 186.576 74.192 186.16 72.528C185.776 70.864 185.104 69.696 184.144 69.024C183.216 68.352 181.936 68.016 180.304 68.016C178.352 68.016 176.608 68.032 175.072 68.064C173.536 68.064 172.032 68.064 170.56 68.064L167.296 62.88C169.216 62.752 171.216 62.64 173.296 62.544C175.408 62.448 177.744 62.4 180.304 62.4ZM174.64 62.88V96H167.296V62.88H174.64ZM213.07 62.4C215.694 62.4 217.902 62.688 219.694 63.264C221.518 63.808 222.974 64.72 224.062 66C225.182 67.28 225.998 69.024 226.51 71.232C227.022 73.408 227.278 76.144 227.278 79.44C227.278 82.736 227.022 85.488 226.51 87.696C225.998 89.872 225.182 91.6 224.062 92.88C222.974 94.16 221.518 95.088 219.694 95.664C217.902 96.208 215.694 96.48 213.07 96.48C210.542 96.48 208.222 96.432 206.11 96.336C203.998 96.24 201.982 96.128 200.062 96L203.134 90.576C204.35 90.64 205.79 90.704 207.454 90.768C209.15 90.8 211.022 90.816 213.07 90.816C214.702 90.816 215.982 90.496 216.91 89.856C217.87 89.184 218.542 88.016 218.926 86.352C219.342 84.688 219.55 82.384 219.55 79.44C219.55 76.496 219.342 74.192 218.926 72.528C218.542 70.864 217.87 69.696 216.91 69.024C215.982 68.352 214.702 68.016 213.07 68.016C211.118 68.016 209.374 68.032 207.838 68.064C206.302 68.064 204.798 68.064 203.326 68.064L200.062 62.88C201.982 62.752 203.982 62.64 206.062 62.544C208.174 62.448 210.51 62.4 213.07 62.4ZM207.406 62.88V96H200.062V62.88H207.406ZM240.172 62.88V96H232.876V62.88H240.172ZM269.971 62.4C272.883 62.4 275.235 62.704 277.027 63.312C278.851 63.888 280.179 64.896 281.011 66.336C281.875 67.744 282.307 69.712 282.307 72.24C282.307 73.776 282.099 75.136 281.683 76.32C281.299 77.472 280.643 78.4 279.715 79.104C278.787 79.808 277.523 80.256 275.923 80.448V80.688C276.499 80.784 277.091 81.008 277.699 81.36C278.339 81.712 278.931 82.24 279.475 82.944C280.019 83.616 280.419 84.528 280.675 85.68L283.555 96H275.827L273.283 85.92C272.995 84.832 272.563 84.08 271.987 83.664C271.443 83.248 270.675 83.04 269.683 83.04C267.507 83.04 265.667 83.04 264.163 83.04C262.691 83.008 261.443 82.976 260.419 82.944C259.427 82.912 258.531 82.88 257.731 82.848L257.875 77.52H269.827C271.107 77.52 272.115 77.392 272.851 77.136C273.619 76.848 274.147 76.352 274.435 75.648C274.755 74.944 274.915 73.968 274.915 72.72C274.915 71.44 274.755 70.464 274.435 69.792C274.147 69.088 273.619 68.608 272.851 68.352C272.115 68.064 271.107 67.92 269.827 67.92C266.819 67.92 264.275 67.936 262.195 67.968C260.115 68 258.691 68.048 257.923 68.112L257.203 62.88C258.547 62.72 259.811 62.608 260.995 62.544C262.179 62.48 263.475 62.448 264.883 62.448C266.291 62.416 267.987 62.4 269.971 62.4ZM264.451 62.88V96H257.203V62.88H264.451ZM304.121 62.88C304.729 62.88 305.257 63.056 305.705 63.408C306.185 63.76 306.505 64.224 306.665 64.8L316.265 96H308.777L302.009 71.664C301.881 71.12 301.753 70.576 301.625 70.032C301.497 69.456 301.385 68.912 301.289 68.4H299.993C299.897 68.912 299.785 69.456 299.657 70.032C299.561 70.576 299.433 71.12 299.273 71.664L292.505 96H284.969L294.617 64.8C294.777 64.224 295.081 63.76 295.529 63.408C296.009 63.056 296.553 62.88 297.161 62.88H304.121ZM309.209 81.744V87.264H292.025V81.744H309.209ZM353.576 62.88C355.304 62.88 356.2 63.776 356.264 65.568L357.512 96H350.744L349.64 68.544H348.776L343.448 89.184C343.16 90.72 342.2 91.488 340.568 91.488H335.96C334.328 91.488 333.336 90.72 332.984 89.184L327.656 68.544H326.84L325.832 96H319.016L320.264 65.568C320.328 63.776 321.24 62.88 323 62.88H329.864C331.432 62.88 332.392 63.664 332.744 65.232L337.016 81.888C337.208 82.656 337.368 83.44 337.496 84.24C337.624 85.008 337.768 85.792 337.928 86.592H338.552C338.712 85.792 338.856 85.008 338.984 84.24C339.144 83.44 339.304 82.64 339.464 81.84L343.688 65.232C344.008 63.664 344.968 62.88 346.568 62.88H353.576ZM376.762 62.208C379.386 62.208 381.61 62.496 383.434 63.072C385.258 63.616 386.714 64.544 387.802 65.856C388.922 67.136 389.738 68.896 390.25 71.136C390.762 73.344 391.018 76.112 391.018 79.44C391.018 82.768 390.762 85.552 390.25 87.792C389.738 90 388.922 91.76 387.802 93.072C386.714 94.352 385.258 95.28 383.434 95.856C381.61 96.4 379.386 96.672 376.762 96.672C374.138 96.672 371.914 96.4 370.09 95.856C368.266 95.28 366.794 94.352 365.674 93.072C364.554 91.76 363.738 90 363.226 87.792C362.714 85.552 362.458 82.768 362.458 79.44C362.458 76.112 362.714 73.344 363.226 71.136C363.738 68.896 364.554 67.136 365.674 65.856C366.794 64.544 368.266 63.616 370.09 63.072C371.914 62.496 374.138 62.208 376.762 62.208ZM376.762 68.016C375.066 68.016 373.738 68.352 372.778 69.024C371.85 69.696 371.178 70.864 370.762 72.528C370.378 74.16 370.186 76.464 370.186 79.44C370.186 82.384 370.378 84.688 370.762 86.352C371.178 88.016 371.85 89.184 372.778 89.856C373.738 90.528 375.066 90.864 376.762 90.864C378.426 90.864 379.722 90.528 380.65 89.856C381.61 89.184 382.282 88.016 382.666 86.352C383.082 84.688 383.29 82.384 383.29 79.44C383.29 76.464 383.082 74.16 382.666 72.528C382.282 70.864 381.61 69.696 380.65 69.024C379.722 68.352 378.426 68.016 376.762 68.016ZM407.553 62.256C409.185 62.256 410.961 62.352 412.881 62.544C414.801 62.704 416.673 63.056 418.497 63.6L418.017 68.448C416.609 68.416 414.961 68.384 413.073 68.352C411.185 68.32 409.329 68.304 407.505 68.304C406.609 68.304 405.841 68.336 405.201 68.4C404.593 68.432 404.097 68.56 403.713 68.784C403.329 68.976 403.057 69.28 402.897 69.696C402.737 70.112 402.657 70.688 402.657 71.424C402.657 72.544 402.913 73.36 403.425 73.872C403.969 74.384 404.881 74.848 406.161 75.264L412.545 77.328C415.201 78.224 417.041 79.44 418.065 80.976C419.089 82.512 419.601 84.528 419.601 87.024C419.601 88.912 419.377 90.48 418.929 91.728C418.481 92.976 417.777 93.952 416.817 94.656C415.857 95.36 414.593 95.856 413.025 96.144C411.457 96.464 409.537 96.624 407.265 96.624C406.177 96.624 404.625 96.544 402.609 96.384C400.593 96.256 398.289 95.904 395.697 95.328L396.177 90.144C398.065 90.176 399.697 90.224 401.073 90.288C402.481 90.32 403.681 90.352 404.673 90.384C405.665 90.384 406.529 90.384 407.265 90.384C408.545 90.384 409.537 90.304 410.241 90.144C410.977 89.984 411.489 89.664 411.777 89.184C412.065 88.704 412.209 88.016 412.209 87.12C412.209 86.352 412.097 85.744 411.873 85.296C411.681 84.816 411.345 84.448 410.865 84.192C410.417 83.904 409.793 83.648 408.993 83.424L402.273 81.12C399.745 80.192 397.953 78.976 396.897 77.472C395.841 75.968 395.313 73.984 395.313 71.52C395.313 69.6 395.537 68.048 395.985 66.864C396.465 65.648 397.185 64.704 398.145 64.032C399.137 63.36 400.401 62.896 401.937 62.64C403.505 62.384 405.377 62.256 407.553 62.256Z" fill="#013440"/>
<path d="M440.565 58.512V104.112H435.525V58.512H440.565ZM464.4 90.72H469.632C470.656 90.72 471.376 90.512 471.792 90.096C472.24 89.648 472.464 88.912 472.464 87.888V73.248C472.464 72.224 472.24 71.504 471.792 71.088C471.376 70.64 470.656 70.416 469.632 70.416H464.4C464.048 70.416 463.872 70.592 463.872 70.944V90.192C463.872 90.544 464.048 90.72 464.4 90.72ZM457.776 94.992V66.144C457.776 65.472 458.112 65.136 458.784 65.136H470.64C473.136 65.136 475.072 65.824 476.448 67.2C477.856 68.544 478.56 70.464 478.56 72.96V88.176C478.56 90.672 477.856 92.608 476.448 93.984C475.072 95.328 473.136 96 470.64 96H458.784C458.112 96 457.776 95.664 457.776 94.992ZM501.012 96H485.316C484.644 96 484.308 95.664 484.308 94.992V66.144C484.308 65.472 484.644 65.136 485.316 65.136H501.012C501.652 65.136 501.972 65.472 501.972 66.144V69.408C501.972 70.08 501.652 70.416 501.012 70.416H490.98C490.596 70.416 490.404 70.592 490.404 70.944V77.184C490.404 77.536 490.596 77.712 490.98 77.712H499.188C499.86 77.712 500.196 78.048 500.196 78.72V81.984C500.196 82.656 499.86 82.992 499.188 82.992H490.98C490.596 82.992 490.404 83.168 490.404 83.52V90.192C490.404 90.544 490.596 90.72 490.98 90.72H501.012C501.652 90.72 501.972 91.056 501.972 91.728V94.992C501.972 95.664 501.652 96 501.012 96ZM519.852 96H513.564C512.892 96 512.492 95.664 512.364 94.992L504.924 66.24C504.7 65.504 505.02 65.136 505.884 65.136H510.396C511.036 65.136 511.42 65.472 511.548 66.144L516.588 89.76H516.78L521.82 66.144C521.948 65.472 522.332 65.136 522.972 65.136H527.484C528.284 65.136 528.604 65.504 528.444 66.24L521.004 94.992C520.844 95.664 520.46 96 519.852 96Z" fill="#00FF7F"/>
</svg>
